HIERARCHY
ROOT pelvis
{
  OFFSET 0 100 0
  CHANNELS 6 Xposition Yposition Zposition Zrotation Xrotation Yrotation
  JOINT pelvis_right_femur
  {
    OFFSET -10.78128 -3.44521 -0.5502486
    CHANNELS 3 Zrotation Xrotation Yrotation
    JOINT right_femur_tibia
    {
      OFFSET -0.8047443 -44.0398 -0.1307829
      CHANNELS 3 Zrotation Xrotation Yrotation
      JOINT right_tibia_foot
      {
        OFFSET 3.006224 -47.83518 -5
        CHANNELS 3 Zrotation Xrotation Yrotation
        End Site
        {
          OFFSET 0 -5 15
        }
      }
    }
  }
  JOINT pelvis_left_femur
  {
    OFFSET 10.78128 -3.44521 -0.5502486
    CHANNELS 3 Zrotation Xrotation Yrotation
    JOINT left_femur_tibia
    {
      OFFSET 0.8047443 -44.0398 -0.1307829
      CHANNELS 3 Zrotation Xrotation Yrotation
      JOINT left_tibia_foot
      {
        OFFSET -4.370144 -48.10324 -4.275266
        CHANNELS 3 Zrotation Xrotation Yrotation
        End Site
        {
          OFFSET 0 -5 15
        }
      }
    }
  }
  JOINT pelvis_spine1
  {
    OFFSET 0 6.468898 -3.129235
    CHANNELS 3 Zrotation Xrotation Yrotation
    JOINT spine1
    {
      OFFSET 0 23.15396 4.99043
      CHANNELS 3 Zrotation Xrotation Yrotation
      JOINT spine2
      {
        OFFSET 0 20.79997 -5.064912
        CHANNELS 3 Zrotation Xrotation Yrotation
        JOINT neck
        {
          OFFSET 0 14.38658 9.616178
          CHANNELS 3 Zrotation Xrotation Yrotation
          End Site
          {
            OFFSET 0 20 0
          }
        }
      }
      JOINT right_manubrium
      {
        OFFSET -5.722621 16.35077 3.967754
        CHANNELS 3 Zrotation Xrotation Yrotation
        JOINT right_clavicle
        {
          OFFSET -13.16364 1.694482 -4.693211
          CHANNELS 3 Zrotation Xrotation Yrotation
          JOINT right_humerus
          {
            OFFSET -28.5034 -0.3100689 -2.792744
            CHANNELS 3 Zrotation Xrotation Yrotation
            JOINT right_radius
            {
              OFFSET -25.15693 0.02248979 -1.271978
              CHANNELS 3 Zrotation Xrotation Yrotation
              End Site
              {
                OFFSET -15 0 0
              }
            }
          }
        }
      }
      JOINT left_manubrium
      {
        OFFSET 5.722621 16.35077 3.967754
        CHANNELS 3 Zrotation Xrotation Yrotation
        JOINT left_clavicle
        {
          OFFSET 13.16364 1.694482 -4.693211
          CHANNELS 3 Zrotation Xrotation Yrotation
          JOINT left_humerus
          {
            OFFSET 29.39168 -1.063119 -2.237045
            CHANNELS 3 Zrotation Xrotation Yrotation
            JOINT left_radius
            {
              OFFSET 24.59957 -0.9528479 0.9047498
              CHANNELS 3 Zrotation Xrotation Yrotation
              End Site
              {
                OFFSET 15 -0 -0
              }
            }
          }
        }
      }
    }
  }
}
MOTION
Frames: 10
Frame Time: 0.0416666666667
27.26765 105.0613 232.1703 0.6191014 -6.016169 0.546797 2.085457 8.828781 6.550817 3.082836e-09 31.5528 -2.177305e-09 4.734333 -10.53026 -2.712716 -1.333535 -17.89787 -7.285143 2.471711e-10 19.75312 -2.889148e-09 -7.328132 -11.40458 18.81927 -1.1147 0.2342651 7.762499 -0.8013977 9.091449 -3.373642 2.348123 21.10409 6.144001 1.793635 -17.42793 8.571993 2.453019 -20.81047 11.25857 80.62422 23.51613 -6.541729 2.756667e-10 -8.341216e-10 25.73077 -24.93987 14.04369 13.64147 5.102722 -14.89003 -1.32657 -94.47553 21.39824 25.58523 3.991932e-10 -6.050264e-10 -8.330984 -2.916952 7.576117 15.36679
28.44062 105.1921 238.2808 0.7545252 -6.473848 0.7164105 1.600214 7.432018 6.696264 3.062986e-09 38.50984 -2.232152e-09 4.5753 -8.301618 -3.446444 -2.28751 -15.11084 -8.154186 1.505565e-10 21.08581 -2.09919e-09 -7.176839 -11.48732 18.59611 -1.373172 0.2341491 7.25543 -0.8840569 9.127699 -3.490881 2.363304 21.31081 6.258292 1.815622 -17.28062 8.715691 2.824557 -19.98583 11.16516 81.02837 23.88935 -7.174709 2.117649e-10 -7.359666e-10 24.41307 -24.59727 13.89763 13.29921 4.792064 -14.73813 -1.482908 -93.58028 21.92123 24.51307 3.319508e-10 -5.39699e-10 -7.871805 -2.817904 7.611736 15.35919
29.58915 105.7393 244.145 1.00182 -7.135467 1.170957 1.069911 4.381368 6.639878 2.492652e-09 46.19954 -1.826412e-09 4.441809 -6.571416 -4.431966 -3.415804 -11.00649 -9.193298 -1.261123e-09 21.60567 1.38409e-10 -6.695893 -12.17537 18.22183 -1.719192 0.301995 6.580245 -0.9523594 9.190026 -3.793703 2.355731 21.69765 6.370226 1.748163 -17.02572 8.92261 3.147032 -19.05848 11.07585 82.10668 24.21624 -8.442412 -8.404092e-11 -7.160784e-10 22.83189 -24.02973 13.78712 12.69743 4.552571 -14.94963 -1.84738 -92.29671 22.62841 22.57372 3.053187e-10 -5.505431e-10 -8.397061 -2.470652 7.878903 15.08609
30.67938 106.5548 249.6014 1.249321 -7.711763 1.880612 0.6940869 0.1749771 6.33247 1.23424e-09 52.10656 -7.727193e-10 4.044734 -6.102616 -5.449912 -4.342726 -6.241066 -10.15884 -3.458462e-09 21.19347 3.406875e-09 -5.989606 -13.17635 17.63646 -2.030735 0.4074423 5.784296 -0.9166694 9.142113 -4.250901 2.321673 22.11594 6.376685 1.56114 -16.68959 9.093304 3.328533 -18.09218 10.92967 83.27321 24.51665 -10.01046 -5.261238e-10 -6.894256e-10 21.10775 -22.92055 13.65954 11.77587 4.401465 -15.4346 -2.275805 -90.48257 23.4476 19.96526 2.933433e-10 -5.94102e-10 -9.737348 -1.870248 8.421407 14.47132
31.69189 107.4449 254.7229 1.366265 -7.931513 2.761363 0.6255927 -4.85593 5.779766 8.321973e-11 54.70732 2.511603e-10 3.441998 -6.333001 -6.329526 -4.893124 -1.212681 -10.88973 -5.164309e-09 19.97184 6.252488e-09 -5.458632 -14.43514 16.8015 -2.173319 0.5050225 4.935658 -0.7488569 8.959947 -4.801934 2.301036 22.44981 6.326438 1.333233 -16.45908 9.258956 3.318721 -17.19083 10.73516 84.58243 24.65225 -11.76101 -8.886625e-10 -6.220238e-10 19.4291 -21.59587 13.54569 10.78709 4.452302 -16.115 -2.652625 -88.69639 24.08882 17.19641 2.833596e-10 -6.356794e-10 -11.59824 -1.121999 9.09545 13.63102
32.62827 108.1333 259.6515 1.430656 -7.769271 3.716246 0.727066 -9.834784 5.084348 -5.367394e-10 53.12526 8.038928e-10 2.886986 -6.903611 -6.895304 -5.129144 3.205064 -11.34235 -5.912769e-09 17.67196 7.62418e-09 -5.081945 -16.01891 16.14771 -2.23919 0.5782136 4.206301 -0.5002911 8.668531 -5.322408 2.309128 22.65413 6.284537 1.178739 -16.33842 9.390508 3.113176 -16.44914 10.51669 85.69314 24.6186 -13.37615 -1.085684e-09 -5.67478e-10 17.9503 -20.53978 13.37833 9.976615 4.827708 -16.89544 -2.897968 -87.13459 24.3978 14.46075 2.849694e-10 -6.662482e-10 -13.80489 -0.3299614 9.737582 12.62264
33.46328 108.4146 264.4619 1.455341 -7.336118 4.631803 0.9787901 -14.59591 4.367905 -7.219236e-10 47.86869 9.47885e-10 2.300365 -7.73825 -7.209914 -5.166776 7.075148 -11.62596 -5.979026e-09 15.20252 7.673632e-09 -4.775362 -17.73943 15.77568 -2.263715 0.6289322 3.591051 -0.1782614 8.289177 -5.792182 2.350486 22.74114 6.227137 1.111084 -16.26707 9.451846 2.774718 -15.73145 10.26732 86.38758 24.51798 -14.86316 -1.144233e-09 -5.297192e-10 16.4278 -19.57594 13.08356 9.192185 5.459478 -17.72085 -3.010938 -85.56067 24.46433 11.61759 2.924057e-10 -6.794799e-10 -16.23573 0.5170463 10.36516 11.41439
34.19646 108.2224 269.4489 1.379305 -6.663906 5.416501 1.307817 -18.75039 3.676172 -3.44013e-10 40.08334 6.233258e-10 1.790683 -8.217625 -7.473669 -4.998923 10.4763 -11.56745 -4.741688e-09 13.19328 6.24597e-09 -4.933162 -19.35519 15.48181 -2.254282 0.628862 3.039662 0.2102773 7.846648 -6.261315 2.429717 22.79658 6.211001 1.150999 -16.27466 9.485659 2.420806 -14.96024 10.02363 87.26452 24.55868 -16.35388 -9.241487e-10 -3.688625e-10 14.82237 -19.15198 12.94465 8.744391 6.29018 -18.56467 -2.910829 -84.50292 24.24544 8.844265 2.34116e-10 -5.747935e-10 -18.5751 1.254275 10.76131 10.28687
34.78269 107.5141 274.4752 1.384863 -6.103325 6.034083 1.58851 -22.17032 3.063174 -4.352365e-10 31.62889 6.553132e-10 1.087302 -9.061892 -7.637204 -4.873072 13.17821 -11.52924 -4.006899e-09 12.03165 4.904097e-09 -4.785384 -20.74287 15.58438 -2.332142 0.639898 2.607765 0.5847517 7.442819 -6.65828 2.493713 22.89962 6.153255 1.243706 -16.21163 9.406217 2.08666 -14.17074 9.810435 87.73097 24.76484 -17.69201 -7.770046e-10 -2.496318e-10 13.04782 -18.6281 12.62411 8.182957 7.114421 -19.41354 -2.785365 -83.24598 24.00467 5.937538 1.930116e-10 -4.726301e-10 -20.89945 2.103938 11.23995 8.976782
35.21615 106.4368 279.5692 1.320161 -5.616451 6.468435 1.860644 -24.74458 2.509355 -5.733173e-10 24.18553 7.131703e-10 0.1270819 -9.835329 -7.821651 -4.689055 15.37614 -11.41848 -3.190146e-09 12.05718 3.892044e-09 -4.751819 -21.54406 15.55349 -2.371571 0.641042 2.187603 0.9384322 7.063135 -7.007857 2.53836 23.04031 6.055172 1.327319 -16.15177 9.270507 1.83587 -13.36409 9.624109 88.14619 25.14843 -18.85191 -6.081117e-10 -5.584527e-11 11.24158 -18.04624 12.32195 7.674658 7.753233 -20.14035 -2.610069 -82.1349 23.76752 3.366 1.26914e-10 -3.182067e-10 -22.69193 2.937459 11.6964 7.749136
